<?xml version="1.0" standalone="no"?>
<!DOCTYPE svg PUBLIC "-//W3C//DTD SVG 20010904//EN"
 "http://www.w3.org/TR/2001/REC-SVG-20010904/DTD/svg10.dtd">
<svg version="1.0" xmlns="http://www.w3.org/2000/svg"
 width="500.000000pt" height="500.000000pt" viewBox="0 0 500.000000 500.000000"
 preserveAspectRatio="xMidYMid meet">

<g transform="translate(0.000000,500.000000) scale(0.100000,-0.100000)"
fill="#000000" stroke="none">
<path d="M2376 3614 c-22 -21 -20 -67 2 -87 41 -37 102 -11 102 43 0 50 -69
79 -104 44z"/>
<path d="M2667 3473 c-49 -52 -72 -119 -72 -213 0 -88 10 -120 66 -210 27 -44
21 -77 -24 -126 -30 -32 -36 -34 -111 -39 l-80 -4 -38 41 c-50 54 -54 73 -29
136 27 69 28 159 1 211 -69 136 -251 173 -361 74 -58 -52 -82 -105 -82 -178 0
-94 40 -157 141 -219 23 -15 47 -37 51 -49 5 -12 6 -74 3 -137 -5 -114 -5
-115 -37 -145 -60 -57 -71 -113 -35 -173 22 -36 54 -52 106 -52 71 0 141 -64
151 -139 7 -53 34 -81 78 -81 38 0 74 28 76 58 4 60 -17 90 -72 98 -26 4 -50
19 -80 50 -42 43 -43 45 -43 113 -1 66 -2 70 -44 115 l-42 46 0 112 c0 124 10
155 52 175 35 18 76 2 112 -43 30 -38 31 -45 21 -154 -6 -58 -4 -69 17 -99 69
-103 224 -97 278 10 24 46 25 89 5 147 -17 49 -9 73 40 126 29 31 26 31 165 8
60 -10 141 3 200 33 61 31 154 134 123 135 -5 1 -27 18 -50 38 -42 37 -42 37
-32 82 20 90 -30 193 -115 231 -54 24 -131 24 -179 0 l-37 -19 -42 34 c-24 19
-46 34 -49 34 -3 0 -17 -12 -32 -27z m332 -109 c65 -54 61 -155 -8 -201 -62
-42 -136 -26 -178 36 -27 39 -29 80 -8 125 33 68 135 90 194 40z"/>
<path d="M1804 2844 c-22 -8 -40 -14 -40 -14 -1 0 -9 -16 -19 -36 -36 -75 15
-154 98 -154 62 1 107 45 107 105 0 40 -15 61 -64 88 -40 22 -46 23 -82 11z"/>
<path d="M2991 2769 c-76 -30 -114 -85 -114 -166 0 -98 69 -167 168 -167 115
-1 198 107 166 215 -10 34 -22 45 -89 84 -80 47 -92 50 -131 34z"/>
<path d="M2610 2450 c-57 -57 31 -139 90 -85 33 30 25 71 -17 94 -31 16 -50
14 -73 -9z"/>
<path d="M1403 2024 c-10 -4 -13 -53 -13 -194 0 -126 -4 -191 -11 -196 -6 -3
-22 0 -36 7 -24 13 -27 12 -54 -21 -36 -43 -36 -53 1 -80 45 -32 98 -36 153
-12 74 33 78 47 75 289 l-3 208 -50 2 c-27 1 -56 0 -62 -3z"/>
<path d="M1563 2023 c-10 -3 -13 -64 -13 -254 l0 -249 65 0 65 0 0 249 c0 276
4 262 -68 260 -20 0 -43 -3 -49 -6z"/>
<path d="M1781 2013 c-66 -33 -71 -53 -71 -286 l0 -208 63 3 62 3 3 193 c2
160 5 192 17 192 12 0 15 -32 17 -192 l3 -193 62 -3 c59 -3 63 -2 69 22 3 14
4 107 2 208 -3 173 -4 185 -26 216 -13 18 -36 39 -52 47 -38 20 -107 19 -149
-2z"/>
<path d="M2105 2012 c-70 -45 -70 -42 -73 -278 l-3 -214 65 0 66 0 0 196 c0
181 1 195 18 192 15 -3 17 -22 20 -196 l2 -193 63 3 62 3 3 193 c2 160 5 192
17 192 12 0 15 -32 17 -192 l3 -193 63 -3 62 -3 0 208 c0 189 -2 211 -20 240
-29 48 -72 67 -139 59 -63 -8 -65 -8 -141 0 -43 4 -61 1 -85 -14z"/>
<path d="M2532 2022 c-9 -7 -12 -64 -10 -253 l3 -244 63 -3 62 -3 -2 253 -3
253 -50 3 c-27 1 -56 -2 -63 -6z"/>
<path d="M2856 2022 c-7 -11 91 -483 103 -495 4 -4 30 -7 56 -5 l49 3 49 237
c27 131 47 244 43 253 -7 20 -89 20 -109 1 -9 -10 -17 -48 -22 -108 -12 -169
-19 -175 -33 -28 -7 85 -16 137 -24 142 -17 10 -105 10 -112 0z"/>
<path d="M3193 2023 c-10 -3 -13 -64 -13 -254 l0 -249 135 0 136 0 -3 58 -3
57 -67 3 -68 3 0 34 c0 34 0 34 53 37 l52 3 3 58 3 57 -56 0 -55 0 0 40 0 39
68 3 67 3 3 43 c5 67 -4 72 -132 71 -61 0 -117 -3 -123 -6z"/>
<path d="M3523 2010 c-56 -34 -63 -61 -63 -235 0 -185 8 -213 74 -245 53 -25
89 -25 144 0 59 27 74 64 70 183 l-3 92 -49 3 c-84 5 -96 -1 -96 -53 0 -30 5
-47 16 -53 20 -11 15 -67 -6 -67 -12 0 -15 23 -18 138 -2 128 -1 138 15 135
12 -2 19 -14 21 -36 l3 -33 57 3 c55 3 57 4 60 33 5 50 -20 107 -57 132 -44
30 -122 31 -168 3z"/>
<path d="M3845 2011 c-70 -43 -70 -41 -73 -277 l-3 -214 65 0 66 0 0 51 c0 43
3 50 18 47 13 -2 18 -15 20 -51 l3 -48 62 3 62 3 3 195 c3 219 -3 245 -67 287
-43 29 -113 31 -156 4z m93 -194 c3 -82 2 -87 -18 -87 -19 0 -20 6 -20 91 0
81 2 90 18 87 14 -3 17 -17 20 -91z"/>
<path d="M1935 1389 c-4 -5 0 -18 9 -28 9 -10 16 -24 16 -32 0 -12 -2 -12 -10
1 -5 8 -12 11 -16 7 -12 -11 13 -30 30 -24 20 8 20 31 1 47 -20 17 -19 31 2
23 11 -4 14 -3 9 5 -9 15 -33 16 -41 1z"/>
<path d="M1992 1358 c3 -48 31 -66 43 -28 11 34 -3 70 -26 70 -18 0 -20 -5
-17 -42z m28 2 c0 -16 -4 -30 -10 -30 -5 0 -10 14 -10 30 0 17 5 30 10 30 6 0
10 -13 10 -30z"/>
<path d="M2051 1358 l-1 -48 43 3 42 2 1 45 c1 39 1 40 -3 8 -5 -48 -23 -50
-23 -3 0 19 -4 35 -10 35 -5 0 -10 -18 -10 -41 0 -53 -23 -48 -31 7 l-6 39 -2
-47z"/>
<path d="M2154 1387 c-11 -31 0 -72 20 -72 11 0 22 7 24 15 5 13 3 13 -11 1
-15 -12 -17 -10 -17 24 0 34 2 36 17 24 14 -12 16 -12 11 1 -6 20 -37 25 -44
7z"/>
<path d="M2210 1355 c0 -25 5 -45 10 -45 6 0 10 20 10 45 0 25 -4 45 -10 45
-5 0 -10 -20 -10 -45z"/>
<path d="M2242 1358 c3 -48 31 -66 43 -28 11 34 -3 70 -26 70 -18 0 -20 -5
-17 -42z m28 2 c0 -16 -4 -30 -10 -30 -5 0 -10 14 -10 30 0 17 5 30 10 30 6 0
10 -13 10 -30z"/>
<path d="M2302 1353 l1 -48 4 43 c2 23 8 42 13 42 5 0 11 -19 13 -42 l4 -43 1
48 c2 41 -1 47 -18 47 -17 0 -20 -6 -18 -47z"/>
<path d="M2360 1354 c0 -39 3 -44 22 -44 21 0 21 0 2 15 -15 12 -16 16 -5 24
9 6 10 11 2 15 -15 10 -14 26 2 25 6 0 23 -14 36 -31 24 -30 24 -30 3 -24 -17
6 -21 4 -16 -8 3 -9 13 -16 20 -16 22 0 28 29 10 49 -20 22 -21 32 -1 25 8 -4
15 -2 15 4 0 6 -20 10 -45 10 l-45 0 0 -44z"/>
<path d="M2490 1354 c0 -41 2 -45 23 -42 18 2 23 10 25 46 3 39 1 42 -22 42
-24 0 -26 -3 -26 -46z m40 0 c0 -13 -4 -24 -10 -24 -5 0 -10 14 -10 31 0 17 4
28 10 24 6 -3 10 -17 10 -31z"/>
<path d="M2550 1355 c0 -25 5 -45 10 -45 6 0 10 20 10 45 0 25 -4 45 -10 45
-5 0 -10 -20 -10 -45z"/>
<path d="M2582 1358 c2 -35 7 -43 23 -43 13 0 21 8 23 23 2 12 -1 22 -7 22 -5
0 -12 -10 -14 -22 -3 -15 -5 -9 -6 14 -1 31 2 36 16 31 11 -4 14 -3 9 5 -4 7
-16 12 -27 12 -17 0 -20 -6 -17 -42z"/>
<path d="M2643 1355 c0 -27 2 -38 4 -22 2 15 2 37 0 50 -2 12 -4 0 -4 -28z"/>
<path d="M2668 1355 c2 -25 8 -45 12 -45 4 0 10 20 12 45 2 35 0 45 -12 45
-12 0 -14 -10 -12 -45z"/>
<path d="M2717 1394 c-10 -11 -8 -84 2 -84 5 0 12 6 14 13 4 10 6 10 6 0 1 -7
6 -13 12 -13 17 0 7 84 -11 88 -9 1 -19 0 -23 -4z m20 -36 c-3 -7 -5 -2 -5 12
0 14 2 19 5 13 2 -7 2 -19 0 -25z"/>
<path d="M2770 1355 c0 -40 2 -45 23 -44 12 0 16 3 10 6 -8 2 -13 22 -13 44 0
21 -4 39 -10 39 -5 0 -10 -20 -10 -45z"/>
<path d="M2820 1355 c0 -40 2 -45 23 -44 12 0 16 3 10 6 -7 2 -13 11 -13 18 0
7 6 16 13 18 10 4 10 6 0 6 -7 1 -13 7 -13 15 0 8 6 17 13 19 6 3 2 6 -10 6
-21 1 -23 -4 -23 -44z"/>
<path d="M2875 1389 c-4 -5 0 -18 9 -28 9 -10 16 -24 16 -32 0 -12 -2 -12 -10
1 -5 8 -12 11 -16 7 -12 -11 13 -30 30 -24 20 8 20 31 1 47 -20 17 -19 31 2
23 11 -4 14 -3 9 5 -9 15 -33 16 -41 1z"/>
<path d="M2960 1356 l0 -45 26 24 c30 28 28 59 -4 63 -20 3 -22 -1 -22 -42z
m30 14 c0 -11 -4 -20 -10 -20 -5 0 -10 9 -10 20 0 11 5 20 10 20 6 0 10 -9 10
-20z"/>
<path d="M3020 1353 c0 -35 3 -44 10 -33 9 13 11 13 20 0 7 -11 10 -2 10 33 0
40 -3 47 -20 47 -17 0 -20 -7 -20 -47z m30 17 c0 -11 -4 -20 -10 -20 -5 0 -10
9 -10 20 0 11 5 20 10 20 6 0 10 -9 10 -20z"/>
<path d="M3081 1353 c1 -38 3 -43 9 -23 l7 25 11 -25 c10 -23 11 -20 11 23 1
41 -2 47 -19 47 -17 0 -20 -6 -19 -47z m29 22 c0 -8 -4 -15 -10 -15 -5 0 -10
7 -10 15 0 8 5 15 10 15 6 0 10 -7 10 -15z"/>
<path d="M3140 1353 c0 -35 3 -44 10 -33 9 13 11 13 20 0 7 -11 10 -2 10 33 0
40 -3 47 -20 47 -17 0 -20 -7 -20 -47z m30 17 c0 -11 -4 -20 -10 -20 -5 0 -10
9 -10 20 0 11 5 20 10 20 6 0 10 -9 10 -20z"/>
<path d="M3227 1392 c6 -4 13 -25 16 -47 l4 -40 1 43 c2 53 22 56 22 2 0 -22
5 -40 10 -40 6 0 10 20 10 45 l0 45 -37 0 c-21 0 -33 -4 -26 -8z"/>
</g>
</svg>
